<svg xmlns="http://www.w3.org/2000/svg" version="1.1" xmlns:xlink="http://www.w3.org/1999/xlink" xmlns:svgjs="http://svgjs.dev/svgjs" width="2000" height="550" viewBox="0 0 2000 550"><g transform="matrix(1,0,0,1,-1.2121212121212466,-0.5881276886143496)"><svg viewBox="0 0 396 109" data-background-color="#fafafa" preserveAspectRatio="xMidYMid meet" height="550" width="2000" xmlns="http://www.w3.org/2000/svg" xmlns:xlink="http://www.w3.org/1999/xlink"><g id="tight-bounds" transform="matrix(1,0,0,1,0.2400000000000091,0.11655621465266108)"><svg viewBox="0 0 395.52 108.76688757069469" height="108.76688757069469" width="395.52"><g><svg viewBox="0 0 606.1353798468715 166.6855246572234" height="108.76688757069469" width="395.52"><g><rect width="6.984022725495942" height="121.21487140413132" x="185.3485751174595" y="22.73532662654604" fill="#130912" opacity="1" stroke-width="0" stroke="transparent" fill-opacity="1" class="rect-qz-0" data-fill-palette-color="primary" rx="1%" id="qz-0" data-palette-color="#130912"></rect></g><g transform="matrix(1,0,0,1,210.61537984687152,23.036856157402084)"><svg viewBox="0 0 395.52 120.61181234241923" height="120.61181234241923" width="395.52"><g id="textblocktransform"><svg viewBox="0 0 395.52 120.61181234241923" height="120.61181234241923" width="395.52" id="textblock"><g><svg viewBox="0 0 395.52 77.44447552447551" height="77.44447552447551" width="395.52"><g transform="matrix(1,0,0,1,0,0)"><svg width="395.52" viewBox="1.65 -36.15 226.63 44.8" height="77.44447552447551" data-palette-color="#130912"><g class="wordmark-text-0" data-fill-palette-color="primary" id="text-0"><path d="M10.1 0.6Q5.85 0.6 3.75-1.63 1.65-3.85 1.65-7.1L1.65-7.1Q1.65-7.7 1.68-7.93 1.7-8.15 1.7-8.2L1.7-8.2 6-8.2 6-7.7Q6-5.35 7.2-4.17 8.4-3 10.3-3L10.3-3Q12-3 13.13-4.03 14.25-5.05 14.25-6.9L14.25-6.9Q14.25-8.3 13.55-9.2 12.85-10.1 11.85-10.63 10.85-11.15 9.05-11.8L9.05-11.8Q6.85-12.55 5.5-13.3 4.15-14.05 3.2-15.53 2.25-17 2.25-19.4L2.25-19.4Q2.25-22.85 4.48-24.88 6.7-26.9 10.45-26.9L10.45-26.9Q14-26.9 16-24.83 18-22.75 18-19.7L18-19.7 17.95-18.75 13.7-18.75 13.7-19.2Q13.7-20.95 12.85-22.13 12-23.3 10.05-23.3L10.05-23.3Q8.1-23.3 7.3-22.2 6.5-21.1 6.5-19.7L6.5-19.7Q6.5-18 7.68-17.18 8.85-16.35 11.3-15.55L11.3-15.55Q13.55-14.75 15-13.98 16.45-13.2 17.48-11.65 18.5-10.1 18.5-7.5L18.5-7.5Q18.5-3.45 16.23-1.43 13.95 0.6 10.1 0.6L10.1 0.6ZM24.15 0L24.15-26.3 28.25-26.3 28.25 0 24.15 0ZM24.05-31.4L24.05-36.15 28.3-36.15 28.3-31.4 24.05-31.4ZM34.89 0L34.89-26.3 37.99-26.3 38.55-23.25 38.84-23.25Q40.8-26.9 44.84-26.9L44.84-26.9Q49.09-26.9 50.45-23.1L50.45-23.1Q51.45-24.95 53.17-25.93 54.89-26.9 56.84-26.9L56.84-26.9Q63.05-26.9 63.05-18.95L63.05-18.95 63.05 0 58.95 0 58.95-18.65Q58.95-21.2 58.05-22.23 57.14-23.25 55.55-23.25L55.55-23.25Q53.64-23.25 52.34-21.3 51.05-19.35 51.05-16.05L51.05-16.05 51.05 0 46.95 0 46.95-18.65Q46.95-21.2 46.05-22.23 45.14-23.25 43.55-23.25L43.55-23.25Q41.64-23.25 40.32-21.3 38.99-19.35 38.99-16.05L38.99-16.05 38.99 0 34.89 0ZM69.04 8.65L69.04-26.3 72.14-26.3 72.69-23.25 72.94-23.25Q73.89-25.05 75.39-25.98 76.89-26.9 78.69-26.9L78.69-26.9Q82.59-26.9 84.72-23.5 86.84-20.1 86.84-13.1L86.84-13.1Q86.84-6.3 84.67-2.85 82.49 0.6 78.99 0.6L78.99 0.6Q77.09 0.6 75.57-0.18 74.04-0.95 73.39-2.3L73.39-2.3 73.14-2.3 73.14 8.65 69.04 8.65ZM77.84-3.05Q80.24-3.05 81.39-5.2 82.54-7.35 82.54-12.2L82.54-12.2 82.54-14.1Q82.54-18.95 81.39-21.1 80.24-23.25 77.84-23.25L77.84-23.25Q73.14-23.25 73.14-14.1L73.14-14.1 73.14-12.2Q73.14-3.05 77.84-3.05L77.84-3.05ZM91.34 0L91.34-36.15 95.44-36.15 95.44 0 91.34 0ZM109.99 0.6Q104.99 0.6 102.51-2.68 100.04-5.95 100.04-13.15L100.04-13.15Q100.04-20.2 102.49-23.55 104.94-26.9 109.94-26.9L109.94-26.9Q114.34-26.9 116.46-23.98 118.59-21.05 118.59-14.55L118.59-14.55 118.59-11.95 104.34-11.95Q104.39-7.35 105.76-5.2 107.14-3.05 110.09-3.05L110.09-3.05Q112.09-3.05 113.31-4.65 114.54-6.25 114.54-8.95L114.54-8.95 118.59-8.95Q118.59-4.55 116.21-1.98 113.84 0.6 109.99 0.6L109.99 0.6ZM104.39-15.6L114.29-15.6Q114.29-19.35 113.19-21.3 112.09-23.25 109.94-23.25L109.94-23.25Q107.29-23.25 105.96-21.38 104.64-19.5 104.39-15.6L104.39-15.6Z" fill="#130912" data-fill-palette-color="primary"></path><path d="M132.99 0L132.99-26.3 136.09-26.3 136.64-23.25 136.94-23.25Q138.99-26.9 143.29-26.9L143.29-26.9Q146.44-26.9 148.11-25.03 149.79-23.15 149.79-18.95L149.79-18.95 149.79 0 145.69 0 145.69-18.65Q145.69-21.2 144.74-22.23 143.79-23.25 141.99-23.25L141.99-23.25Q139.94-23.25 138.51-21.3 137.09-19.35 137.09-16.05L137.09-16.05 137.09 0 132.99 0ZM164.19 0.6Q159.54 0.6 157.16-2.78 154.79-6.15 154.79-13.15L154.79-13.15Q154.79-20.15 157.16-23.53 159.54-26.9 164.19-26.9L164.19-26.9Q168.84-26.9 171.21-23.53 173.59-20.15 173.59-13.15L173.59-13.15Q173.59-6.15 171.21-2.78 168.84 0.6 164.19 0.6L164.19 0.6ZM164.19-3.05Q169.29-3.05 169.29-12.2L169.29-12.2 169.29-14.1Q169.29-23.25 164.19-23.25L164.19-23.25Q159.09-23.25 159.09-14.1L159.09-14.1 159.09-12.2Q159.09-3.05 164.19-3.05L164.19-3.05ZM183.23 0.5Q180.73 0.5 179.63-1.23 178.53-2.95 178.53-5.55L178.53-5.55 178.53-22.65 176.28-22.65 176.28-26.3 178.53-26.3 179.43-33.6 182.63-33.6 182.63-26.3 186.18-26.3 186.18-22.65 182.63-22.65 182.63-5.45Q182.63-3.05 184.98-3.05L184.98-3.05 186.18-3.05 186.18-0.2Q185.63 0.1 184.81 0.3 183.98 0.5 183.23 0.5L183.23 0.5ZM199.03 0.6Q194.03 0.6 191.56-2.68 189.08-5.95 189.08-13.15L189.08-13.15Q189.08-20.2 191.53-23.55 193.98-26.9 198.98-26.9L198.98-26.9Q203.38-26.9 205.51-23.98 207.63-21.05 207.63-14.55L207.63-14.55 207.63-11.95 193.38-11.95Q193.43-7.35 194.81-5.2 196.18-3.05 199.13-3.05L199.13-3.05Q201.13-3.05 202.36-4.65 203.58-6.25 203.58-8.95L203.58-8.95 207.63-8.95Q207.63-4.55 205.26-1.98 202.88 0.6 199.03 0.6L199.03 0.6ZM193.43-15.6L203.33-15.6Q203.33-19.35 202.23-21.3 201.13-23.25 198.98-23.25L198.98-23.25Q196.33-23.25 195.01-21.38 193.68-19.5 193.43-15.6L193.43-15.6ZM219.88 0.6Q215.63 0.6 213.53-1.63 211.43-3.85 211.43-7.1L211.43-7.1Q211.43-7.7 211.45-7.93 211.48-8.15 211.48-8.2L211.48-8.2 215.78-8.2 215.78-7.7Q215.78-5.35 216.98-4.17 218.18-3 220.08-3L220.08-3Q221.78-3 222.9-4.03 224.03-5.05 224.03-6.9L224.03-6.9Q224.03-8.3 223.33-9.2 222.63-10.1 221.63-10.63 220.63-11.15 218.83-11.8L218.83-11.8Q216.63-12.55 215.28-13.3 213.93-14.05 212.98-15.53 212.03-17 212.03-19.4L212.03-19.4Q212.03-22.85 214.25-24.88 216.48-26.9 220.23-26.9L220.23-26.9Q223.78-26.9 225.78-24.83 227.78-22.75 227.78-19.7L227.78-19.7 227.73-18.75 223.48-18.75 223.48-19.2Q223.48-20.95 222.63-22.13 221.78-23.3 219.83-23.3L219.83-23.3Q217.88-23.3 217.08-22.2 216.28-21.1 216.28-19.7L216.28-19.7Q216.28-18 217.45-17.18 218.63-16.35 221.08-15.55L221.08-15.55Q223.33-14.75 224.78-13.98 226.23-13.2 227.25-11.65 228.28-10.1 228.28-7.5L228.28-7.5Q228.28-3.45 226-1.43 223.73 0.6 219.88 0.6L219.88 0.6Z" fill="#e77917" data-fill-palette-color="accent"></path></g></svg></g></svg></g><g transform="matrix(1,0,0,1,0,95.72725752839159)"><svg viewBox="0 0 308.11008 24.884554814027634" height="24.884554814027634" width="308.11008"><g transform="matrix(1,0,0,1,0,0)"><svg width="308.11008" viewBox="2.1 -32.3 466.81 38" height="24.884554814027634" data-palette-color="#130912"><g class="slogan-text-1" data-fill-palette-color="secondary" id="text-1"><path d="M13.35-32.3Q16.8-32.3 20.5-30.8L20.5-30.8 19.85-26.95 19.15-26.75Q17.7-27.85 16.07-28.45 14.45-29.05 12.85-29.05L12.85-29.05Q11-29.05 9.63-28.3 8.25-27.55 7.53-26.35 6.8-25.15 6.8-23.85L6.8-23.85Q6.8-22.5 7.63-21.48 8.45-20.45 9.7-19.7 10.95-18.95 13.1-17.9L13.1-17.9Q15.8-16.65 17.45-15.58 19.1-14.5 20.28-12.85 21.45-11.2 21.45-8.85L21.45-8.85Q21.45-6.35 20.1-4.25 18.75-2.15 16.3-0.9 13.85 0.35 10.7 0.35L10.7 0.35Q8.6 0.35 6.33-0.23 4.05-0.8 2.1-1.9L2.1-1.9 2.6-6 3.15-6.25Q4.9-4.55 7.03-3.73 9.15-2.9 11.1-2.9L11.1-2.9Q13-2.9 14.48-3.65 15.95-4.4 16.73-5.65 17.5-6.9 17.5-8.3L17.5-8.3Q17.5-10.4 15.9-11.68 14.3-12.95 11.05-14.45L11.05-14.45Q8.4-15.75 6.8-16.78 5.2-17.8 4.05-19.43 2.9-21.05 2.9-23.4L2.9-23.4Q2.9-25.85 4.23-27.9 5.55-29.95 7.93-31.13 10.3-32.3 13.35-32.3L13.35-32.3ZM31.85-24.9L31.7-7.8 31.8 0 28.1 0 28.25-7.5 28.1-24.9 31.85-24.9ZM65-24.9L67.55 0 64.2 0 63.65-7.6 62.3-19.1 62-19.1 54.84-2.8 51.9-2.8 45.15-19.1 44.84-19.1 43.55-7.9 42.84 0 39.65 0 42.4-24.9 46.75-24.9 48-21.15 53.45-7.75 53.75-7.75 59.45-21.35 60.75-24.9 65-24.9ZM83.69-24.95Q87.64-24.95 89.77-23.05 91.89-21.15 91.89-17.55L91.89-17.55Q91.89-13.35 89.22-10.98 86.54-8.6 81.84-8.6L81.84-8.6 78.79-8.6 78.79-7.8 78.89 0 75.19 0 75.34-7.5 75.19-24.9 83.69-24.95ZM83.04-11.5Q87.99-12.35 87.99-17.25L87.99-17.25Q87.99-19.6 86.67-20.75 85.34-21.9 82.69-22L82.69-22 78.89-21.95 78.84-11.6 83.04-11.5ZM111.69-3.15L111.89-2.8 111.64 0 98.39 0 98.54-7.5 98.39-24.9 102.14-24.9 101.99-7.8 102.09-3.15 111.69-3.15ZM125.89-3L132.54-3.2 132.84-2.9 132.49 0 117.34 0 117.49-7.5 117.34-24.9 132.59-24.9 132.84-24.6 132.54-21.7 126.24-21.9 121.04-21.85 120.99-14.3 125.94-14.25 130.29-14.4 130.54-14.05 130.24-11.1 125.64-11.25 120.99-11.2 120.94-7.8 120.99-3.05 125.89-3Z" fill="#130912" data-fill-palette-color="primary"></path><path d="M166.39-25L166.24-7.45 166.29 0 162.29 0 149.19-19 148.94-19 148.89-8.3 148.99 0 145.59 0 145.74-7.35 145.64-24.9 149.59-24.9 162.69-5.9 163.04-5.9 162.94-24.75 166.39-25ZM185.18-25.2Q190.64-25.2 193.56-22 196.49-18.8 196.49-12.95L196.49-12.95Q196.49-6.6 193.36-3.13 190.24 0.35 184.43 0.35L184.43 0.35Q179.04 0.35 176.09-2.93 173.14-6.2 173.14-12.25L173.14-12.25Q173.14-18.45 176.29-21.83 179.43-25.2 185.18-25.2L185.18-25.2ZM184.84-22.05Q180.89-22.05 178.96-19.8 177.04-17.55 177.04-12.7L177.04-12.7Q177.04-7.5 178.93-5.15 180.84-2.8 184.74-2.8L184.74-2.8Q188.74-2.8 190.68-5.1 192.64-7.4 192.64-12.3L192.64-12.3Q192.64-17.35 190.71-19.7 188.79-22.05 184.84-22.05L184.84-22.05ZM218.78-24.9L218.98-24.6 218.73-21.45 214.08-21.8 211.58-21.8 211.43-7.8 211.58 0 207.83 0 207.98-7.5 207.88-21.8 205.38-21.8 200.63-21.45 200.33-21.8 200.63-24.9 218.78-24.9ZM233.63-3L240.28-3.2 240.58-2.9 240.23 0 225.08 0 225.23-7.5 225.08-24.9 240.33-24.9 240.58-24.6 240.28-21.7 233.98-21.9 228.78-21.85 228.73-14.3 233.68-14.25 238.03-14.4 238.28-14.05 237.98-11.1 233.38-11.25 228.73-11.2 228.68-7.8 228.73-3.05 233.63-3ZM248.68-4.35Q250.78-3.05 250.78-1L250.78-1Q250.78 2.25 246.08 5.7L246.08 5.7 244.73 4.45 244.73 4.1Q247.48 1.95 247.48-0.3L247.48-0.3Q247.48-1.65 245.93-2.65L245.93-2.65 245.93-3.05Q247.33-4 248.68-4.35L248.68-4.35Z" fill="#e77917" data-fill-palette-color="accent"></path><path d="M270.88-25.15Q273.93-25.15 276.98-23.95L276.98-23.95 276.33-20.25 275.73-20.1Q274.33-21.2 273.08-21.73 271.83-22.25 270.48-22.25L270.48-22.25Q268.33-22.25 267.08-21.13 265.83-20 265.83-18.55L265.83-18.55Q265.83-17.1 267.05-16.2 268.28-15.3 270.83-14.2L270.83-14.2Q273.08-13.2 274.4-12.4 275.73-11.6 276.7-10.28 277.68-8.95 277.68-7.05L277.68-7.05Q277.68-5.1 276.63-3.43 275.58-1.75 273.55-0.73 271.53 0.3 268.73 0.3L268.73 0.3Q266.98 0.3 265.05-0.13 263.13-0.55 261.48-1.4L261.48-1.4 261.93-5.35 262.43-5.55Q263.83-4.15 265.7-3.38 267.58-2.6 269.18-2.6L269.18-2.6Q271.28-2.6 272.63-3.73 273.98-4.85 273.98-6.45L273.98-6.45Q273.98-7.95 272.75-8.85 271.53-9.75 268.93-10.95L268.93-10.95Q266.78-11.9 265.4-12.7 264.03-13.5 263.08-14.83 262.13-16.15 262.13-18.05L262.13-18.05Q262.13-20.05 263.2-21.65 264.28-23.25 266.25-24.2 268.23-25.15 270.88-25.15L270.88-25.15ZM288.53-24.9L288.37-7.8 288.48 0 284.78 0 284.93-7.5 284.78-24.9 288.53-24.9ZM321.67-24.9L324.22 0 320.87 0 320.32-7.6 318.97-19.1 318.67-19.1 311.52-2.8 308.57-2.8 301.82-19.1 301.52-19.1 300.22-7.9 299.52 0 296.32 0 299.07-24.9 303.42-24.9 304.67-21.15 310.12-7.75 310.42-7.75 316.12-21.35 317.42-24.9 321.67-24.9ZM340.37-24.95Q344.32-24.95 346.45-23.05 348.57-21.15 348.57-17.55L348.57-17.55Q348.57-13.35 345.9-10.98 343.22-8.6 338.52-8.6L338.52-8.6 335.47-8.6 335.47-7.8 335.57 0 331.87 0 332.02-7.5 331.87-24.9 340.37-24.95ZM339.72-11.5Q344.67-12.35 344.67-17.25L344.67-17.25Q344.67-19.6 343.34-20.75 342.02-21.9 339.37-22L339.37-22 335.57-21.95 335.52-11.6 339.72-11.5ZM368.37-3.15L368.57-2.8 368.32 0 355.07 0 355.22-7.5 355.07-24.9 358.82-24.9 358.67-7.8 358.77-3.15 368.37-3.15ZM382.57-3L389.22-3.2 389.52-2.9 389.17 0 374.02 0 374.17-7.5 374.02-24.9 389.27-24.9 389.52-24.6 389.22-21.7 382.92-21.9 377.72-21.85 377.67-14.3 382.62-14.25 386.97-14.4 387.22-14.05 386.92-11.1 382.32-11.25 377.67-11.2 377.62-7.8 377.67-3.05 382.57-3Z" fill="#130912" data-fill-palette-color="primary"></path><path d="M415.47-3.15L415.67-2.8 415.42 0 402.17 0 402.32-7.5 402.17-24.9 405.92-24.9 405.77-7.8 405.87-3.15 415.47-3.15ZM424.86-24.9L424.72-7.8 424.82 0 421.12 0 421.27-7.5 421.12-24.9 424.86-24.9ZM442.06-21.9L437.51-21.85 437.46-13.65 441.76-13.6 446.16-13.75 446.41-13.4 446.16-10.55 441.41-10.6 437.41-10.55 437.41-7.8 437.51 0 433.81 0 433.91-7.5 433.81-24.9 448.31-24.9 448.51-24.6 448.21-21.7 442.06-21.9ZM461.96-3L468.61-3.2 468.91-2.9 468.56 0 453.41 0 453.56-7.5 453.41-24.9 468.66-24.9 468.91-24.6 468.61-21.7 462.31-21.9 457.11-21.85 457.06-14.3 462.01-14.25 466.36-14.4 466.61-14.05 466.31-11.1 461.71-11.25 457.06-11.2 457.01-7.8 457.06-3.05 461.96-3Z" fill="#e77917" data-fill-palette-color="accent"></path></g></svg></g></svg></g></svg></g></svg></g><g><svg viewBox="0 0 167.0657931135434 166.6855246572234" height="166.6855246572234" width="167.0657931135434"><g><svg xmlns="http://www.w3.org/2000/svg" xmlns:xlink="http://www.w3.org/1999/xlink" version="1.1" x="0" y="0" viewBox="1.496 1.549 47.00899999999999 46.902" enable-background="new 0 0 50 50" xml:space="preserve" height="166.6855246572234" width="167.0657931135434" class="icon-icon-0" data-fill-palette-color="accent" id="icon-0"><g fill="#e77917" data-fill-palette-color="accent"><path fill="#e77917" d="M32.121 47.295l-0.002-0.031-0.008 0.01-0.09-2.393c0.004 0.002 0.008 0.004 0.012 0.004l-0.178-4.818 7.623-21.234v-4.845L28.215 1.549H1.496v46.902h37.982v-14.05l-2.611 7.296L32.121 47.295zM38.871 14.716h-9.169c-1.125 0-2.038-1.028-2.038-2.3L27.608 2.277 38.871 14.716zM8.713 18.05h23.32v1.292H8.713V18.05zM8.773 21.618h23.319v1.293H8.773V21.618zM8.832 25.187h23.32v1.292H8.832V25.187zM8.892 28.756h23.32v1.293H8.892V28.756zM8.951 32.324h23.32v1.293H8.951V32.324z" data-fill-palette-color="accent"></path><polygon fill="#e77917" points="32.813,39.791 32.991,44.641 36.225,40.828 47.488,9.353 44.131,8.262  " data-fill-palette-color="accent"></polygon><path fill="#e77917" d="M46.836 5.467c-1.122-0.363-1.68-0.416-1.68-0.416L44.561 6.71l3.349 1.086 0.595-1.668C48.291 6.021 47.727 5.757 46.836 5.467z" data-fill-palette-color="accent"></path></g></svg></g></svg></g></svg></g><defs></defs></svg><rect width="395.52" height="108.76688757069469" fill="none" stroke="none" visibility="hidden"></rect></g></svg></g></svg>